<svg xmlns="http://www.w3.org/2000/svg" width="128" height="128" viewBox="-5 -12.5 60 60" role="img" aria-labelledby="fusion-lint-icon-title">
  <title id="fusion-lint-icon-title">Fusion Lint</title>
  <!-- Dark background fills the square viewBox -->
  <rect x="-5" y="-12.5" width="60" height="60" rx="4" fill="#1e1e1e"/>
  <!-- Fusion logo paths at native 50x35 coordinate space, centred by viewBox padding -->
  <path d="M0 2V23.1776L7.05405 16.1235V7.05405H16.1235L23.1776 0H2C0.895431 0 0 0.89543 0 2Z" transform="translate(50 17.5) scale(0.92727 1.06779) rotate(135)" fill="url(#a)"/>
  <path d="M0 2V23.1776L7.05405 16.1235V7.05405H16.1235L23.1776 0H2C0.895431 0 0 0.89543 0 2Z" transform="translate(0 17.5) scale(0.92727 1.06779) rotate(-45)" fill="url(#b)"/>
  <path d="M9.61965 36.6972L2.60087 29.6784L1.96135 22.3809L8.42623 22.9069L9.61965 36.6972Z" transform="translate(33.8887 34.9863) scale(0.92727 -1.06779) rotate(45)" fill="#990025"/>
  <path d="M7.05434 7.05434L0 0L1.21096 13.8183L7.68846 14.3818L7.05434 7.05434Z" transform="translate(33.8887 34.9863) scale(0.92727 -1.06779) rotate(45)" fill="#990025"/>
  <path d="M0 0L2.49398 29.5715L9.61965 36.6972L7.01878 7.01878L0 0Z" transform="translate(33.8887 0.015625) scale(0.92727 1.06779) rotate(45)" fill="#FF1243"/>
  <defs>
    <linearGradient id="a" x2="1" gradientUnits="userSpaceOnUse" gradientTransform="matrix(-13.5478 9.01983 -12.9578 -13.5478 18.0677 6.77391)">
      <stop offset="0.508287" stop-color="#DC002E"/>
      <stop offset="0.508387" stop-color="#FF1243"/>
    </linearGradient>
    <linearGradient id="b" x2="1" gradientUnits="userSpaceOnUse" gradientTransform="matrix(-13.5478 9.01983 -12.9578 -13.5478 18.0677 6.77391)">
      <stop offset="0.508287" stop-color="#DC002E"/>
      <stop offset="0.508387" stop-color="#FF1243"/>
    </linearGradient>
  </defs>
</svg>
